<svg width="32" height="32" viewBox="0 0 512 512" fill="none" xmlns="http://www.w3.org/2000/svg">
  <!-- Gradient definitions -->
  <defs>
    <linearGradient id="gradientPrimary" x1="0%" y1="0%" x2="100%" y2="100%">
      <stop offset="0%" stop-color="#0ea5e9" />
      <stop offset="50%" stop-color="#6366f1" />
      <stop offset="100%" stop-color="#8b5cf6" />
    </linearGradient>
    <linearGradient id="gradientSecondary" x1="100%" y1="0%" x2="0%" y2="100%">
      <stop offset="0%" stop-color="#6366f1" />
      <stop offset="50%" stop-color="#8b5cf6" />
      <stop offset="100%" stop-color="#d946ef" />
    </linearGradient>
  </defs>
  
  <!-- Main logo shape - stylized P -->
  <g>
    <!-- Outer circle -->
    <circle cx="256" cy="256" r="200" fill="white" />
    
    <!-- Stylized P shape -->
    <path d="M180 140C180 128.954 188.954 120 200 120H312C345.137 120 372 146.863 372 180V200C372 233.137 345.137 260 312 260H240V372C240 383.046 231.046 392 220 392H200C188.954 392 180 383.046 180 372V140Z" fill="url(#gradientPrimary)"/>
    
    <!-- Inner circle for the P -->
    <circle cx="292" cy="190" r="40" fill="white"/>
    
    <!-- Stylized H shape -->
    <path d="M240 260V200C240 188.954 248.954 180 260 180H280C291.046 180 300 188.954 300 200V372C300 383.046 291.046 392 280 392H260C248.954 392 240 383.046 240 372V320H180V372C180 383.046 171.046 392 160 392H140C128.954 392 120 383.046 120 372V200C120 188.954 128.954 180 140 180H160C171.046 180 180 188.954 180 200V260H240Z" fill="url(#gradientSecondary)"/>
  </g>
</svg>
