<?xml version="1.0" encoding="UTF-8"?>
<svg version="1.1" xmlns="http://www.w3.org/2000/svg" width="1024" height="1024">
<path d="M0 0 C337.92 0 675.84 0 1024 0 C1024 337.92 1024 675.84 1024 1024 C686.08 1024 348.16 1024 0 1024 C0 686.08 0 348.16 0 0 Z " fill="#F8F8F8" transform="translate(0,0)"/>
<path d="M0 0 C3.41495428 0.02367428 6.82912421 0.02051343 10.24414062 0.01391602 C31.42882551 0.0388834 52.40866651 1.38672314 73.29101562 5.02368164 C74.0483902 5.15312164 74.80576477 5.28256165 75.58609009 5.41592407 C90.09262293 7.91055087 104.3096186 11.09916005 118.41601562 15.33618164 C119.04854248 15.52589539 119.68106934 15.71560913 120.33276367 15.91107178 C169.66047573 30.78285992 217.88461088 55.92172053 255.93945312 91.07055664 C257.94886506 92.90881993 259.98740401 94.68725269 262.05273438 96.46118164 C267.19932982 100.95454612 272.02238733 105.75853649 276.85351562 110.58618164 C277.74361328 111.4640332 278.63371094 112.34188477 279.55078125 113.24633789 C285.61230342 119.29457696 291.09771221 125.6300692 296.41601562 132.33618164 C297.429685 133.5786651 298.44504819 134.81977069 299.46289062 136.05883789 C307.16775318 145.5421745 314.46712044 155.28525488 321.41601562 165.33618164 C321.90005859 166.03565918 322.38410156 166.73513672 322.8828125 167.45581055 C330.20940397 178.19695545 336.28921765 189.54108519 342.22851562 201.08618164 C342.58514282 201.77938507 342.94177002 202.4725885 343.3092041 203.1867981 C350.24954649 216.72423288 356.98137316 230.27702043 362.04101562 244.64868164 C362.42290039 245.72480713 362.80478516 246.80093262 363.19824219 247.90966797 C366.36424627 256.95433537 369.13489636 266.03031912 371.41601562 275.33618164 C371.62178223 276.17149414 371.82754883 277.00680664 372.03955078 277.86743164 C376.8762486 297.75528963 380.7308952 317.9194478 382.41601562 338.33618164 C382.50214111 339.37814697 382.5882666 340.4201123 382.67700195 341.49365234 C389.38784983 431.18380076 365.74327257 521.08285904 311.41601562 593.33618164 C310.77583496 594.19421387 310.1356543 595.05224609 309.47607422 595.9362793 C297.8976527 611.43863937 285.98837213 625.91615096 272.35351562 639.64868164 C271.44327637 640.56834717 270.53303711 641.4880127 269.59521484 642.43554688 C263.50923328 648.49251629 257.15883866 654.02387016 250.41601562 659.33618164 C249.72693115 659.88459717 249.03784668 660.4330127 248.32788086 660.99804688 C224.87252201 679.53101163 200.17888614 696.01572033 173.41601562 709.33618164 C172.51979492 709.78606445 171.62357422 710.23594727 170.70019531 710.69946289 C130.38246484 730.72129112 86.17168078 741.72458653 41.41601562 745.33618164 C40.18496094 745.44704102 38.95390625 745.55790039 37.68554688 745.67211914 C3.19886308 748.27356114 -31.68385596 746.09408842 -65.58398438 739.33618164 C-66.504375 739.15812988 -67.42476563 738.98007812 -68.37304688 738.79663086 C-96.69864379 733.16011323 -125.78604605 723.31260169 -151.58398438 710.33618164 C-152.62530518 709.82837158 -153.66662598 709.32056152 -154.73950195 708.79736328 C-162.99798627 704.74147533 -170.98829258 700.36057134 -178.89648438 695.64868164 C-179.47737823 695.30368622 -180.05827209 694.9586908 -180.6567688 694.60324097 C-190.65383512 688.65374984 -200.25742468 682.29224075 -209.58398438 675.33618164 C-210.69826703 674.5167622 -211.8128389 673.69773585 -212.92773438 672.87915039 C-222.35110504 665.89490976 -231.38390763 658.6438012 -240.00976562 650.69165039 C-242.10509604 648.77437537 -244.22944312 646.92054279 -246.39648438 645.08618164 C-255.40667185 637.24880782 -263.99261853 628.55314142 -271.58398438 619.33618164 C-272.02500488 618.80895508 -272.46602539 618.28172852 -272.92041016 617.73852539 C-281.06477524 607.99160188 -288.66492303 597.93540309 -295.99755859 587.56665039 C-297.54270496 585.39421931 -299.10876372 583.23859205 -300.68164062 581.08618164 C-308.0784424 570.90133632 -314.50477055 560.35216271 -320.58398438 549.33618164 C-321.03628418 548.5326123 -321.48858398 547.72904297 -321.95458984 546.90112305 C-346.63701844 502.90734457 -359.30063294 453.25079987 -363.58398438 403.33618164 C-363.69419922 402.14049561 -363.69419922 402.14049561 -363.80664062 400.9206543 C-367.53258905 360.28205188 -363.02382444 318.89360668 -353.58398438 279.33618164 C-353.26373291 277.95366211 -353.26373291 277.95366211 -352.93701172 276.54321289 C-348.03705638 255.55281422 -341.13639779 234.88507891 -330.91308594 215.8605957 C-329.21370633 212.63289821 -327.58448502 209.37103108 -325.95117188 206.10961914 C-318.63825724 191.56112266 -311.14765233 177.55940045 -301.58398438 164.33618164 C-300.49072371 162.79509122 -299.39830193 161.25340541 -298.30664062 159.71118164 C-295.11025545 155.21964506 -291.86275131 150.7678634 -288.58398438 146.33618164 C-288.12749512 145.71839844 -287.67100586 145.10061523 -287.20068359 144.46411133 C-282.0952631 137.59208957 -276.70872995 131.08203834 -270.87304688 124.81274414 C-268.93815221 122.71935981 -267.09821532 120.58535957 -265.27148438 118.39868164 C-261.6269349 114.19276791 -257.53468795 110.50844504 -253.42382812 106.76928711 C-250.29515382 103.92331346 -247.23691356 101.04185562 -244.27148438 98.02368164 C-241.24639202 94.96093253 -238.1290634 92.0747911 -234.85351562 89.28149414 C-233.22448267 87.88518018 -231.62035125 86.45961491 -230.03320312 85.01586914 C-215.14070145 71.80000672 -197.81433682 61.23669468 -180.58398438 51.33618164 C-179.7404541 50.84553223 -178.89692383 50.35488281 -178.02783203 49.84936523 C-144.2496798 30.22351052 -108.65982238 15.4980169 -70.22851562 7.87426758 C-67.74355057 7.36864877 -65.27355894 6.82051375 -62.80273438 6.25024414 C-42.04715598 1.49552787 -21.26223706 -0.15669794 0 0 Z " fill="#F8F8F8" transform="translate(502.583984375,139.663818359375)"/>
<path d="M0 0 C3.41495428 0.02367428 6.82912421 0.02051343 10.24414062 0.01391602 C31.42882551 0.0388834 52.40866651 1.38672314 73.29101562 5.02368164 C74.0483902 5.15312164 74.80576477 5.28256165 75.58609009 5.41592407 C90.09262293 7.91055087 104.3096186 11.09916005 118.41601562 15.33618164 C119.04854248 15.52589539 119.68106934 15.71560913 120.33276367 15.91107178 C169.66047573 30.78285992 217.88461088 55.92172053 255.93945312 91.07055664 C257.94886506 92.90881993 259.98740401 94.68725269 262.05273438 96.46118164 C267.19932982 100.95454612 272.02238733 105.75853649 276.85351562 110.58618164 C277.74361328 111.4640332 278.63371094 112.34188477 279.55078125 113.24633789 C285.61230342 119.29457696 291.09771221 125.6300692 296.41601562 132.33618164 C297.429685 133.5786651 298.44504819 134.81977069 299.46289062 136.05883789 C307.16775318 145.5421745 314.46712044 155.28525488 321.41601562 165.33618164 C321.90005859 166.03565918 322.38410156 166.73513672 322.8828125 167.45581055 C330.20940397 178.19695545 336.28921765 189.54108519 342.22851562 201.08618164 C342.58514282 201.77938507 342.94177002 202.4725885 343.3092041 203.1867981 C350.24954649 216.72423288 356.98137316 230.27702043 362.04101562 244.64868164 C362.42290039 245.72480713 362.80478516 246.80093262 363.19824219 247.90966797 C366.36424627 256.95433537 369.13489636 266.03031912 371.41601562 275.33618164 C371.62178223 276.17149414 371.82754883 277.00680664 372.03955078 277.86743164 C376.8762486 297.75528963 380.7308952 317.9194478 382.41601562 338.33618164 C382.50214111 339.37814697 382.5882666 340.4201123 382.67700195 341.49365234 C389.38784983 431.18380076 365.74327257 521.08285904 311.41601562 593.33618164 C310.77583496 594.19421387 310.1356543 595.05224609 309.47607422 595.9362793 C297.8976527 611.43863937 285.98837213 625.91615096 272.35351562 639.64868164 C271.44327637 640.56834717 270.53303711 641.4880127 269.59521484 642.43554688 C263.50923328 648.49251629 257.15883866 654.02387016 250.41601562 659.33618164 C249.72693115 659.88459717 249.03784668 660.4330127 248.32788086 660.99804688 C224.87252201 679.53101163 200.17888614 696.01572033 173.41601562 709.33618164 C172.51979492 709.78606445 171.62357422 710.23594727 170.70019531 710.69946289 C130.38246484 730.72129112 86.17168078 741.72458653 41.41601562 745.33618164 C40.18496094 745.44704102 38.95390625 745.55790039 37.68554688 745.67211914 C3.19886308 748.27356114 -31.68385596 746.09408842 -65.58398438 739.33618164 C-66.504375 739.15812988 -67.42476563 738.98007812 -68.37304688 738.79663086 C-96.69864379 733.16011323 -125.78604605 723.31260169 -151.58398438 710.33618164 C-152.62530518 709.82837158 -153.66662598 709.32056152 -154.73950195 708.79736328 C-162.99798627 704.74147533 -170.98829258 700.36057134 -178.89648438 695.64868164 C-179.47737823 695.30368622 -180.05827209 694.9586908 -180.6567688 694.60324097 C-190.65383512 688.65374984 -200.25742468 682.29224075 -209.58398438 675.33618164 C-210.69826703 674.5167622 -211.8128389 673.69773585 -212.92773438 672.87915039 C-222.35110504 665.89490976 -231.38390763 658.6438012 -240.00976562 650.69165039 C-242.10509604 648.77437537 -244.22944312 646.92054279 -246.39648438 645.08618164 C-255.40667185 637.24880782 -263.99261853 628.55314142 -271.58398438 619.33618164 C-272.02500488 618.80895508 -272.46602539 618.28172852 -272.92041016 617.73852539 C-281.06477524 607.99160188 -288.66492303 597.93540309 -295.99755859 587.56665039 C-297.54270496 585.39421931 -299.10876372 583.23859205 -300.68164062 581.08618164 C-308.0784424 570.90133632 -314.50477055 560.35216271 -320.58398438 549.33618164 C-321.03628418 548.5326123 -321.48858398 547.72904297 -321.95458984 546.90112305 C-346.63701844 502.90734457 -359.30063294 453.25079987 -363.58398438 403.33618164 C-363.69419922 402.14049561 -363.69419922 402.14049561 -363.80664062 400.9206543 C-367.53258905 360.28205188 -363.02382444 318.89360668 -353.58398438 279.33618164 C-353.26373291 277.95366211 -353.26373291 277.95366211 -352.93701172 276.54321289 C-348.03705638 255.55281422 -341.13639779 234.88507891 -330.91308594 215.8605957 C-329.21370633 212.63289821 -327.58448502 209.37103108 -325.95117188 206.10961914 C-318.63825724 191.56112266 -311.14765233 177.55940045 -301.58398438 164.33618164 C-300.49072371 162.79509122 -299.39830193 161.25340541 -298.30664062 159.71118164 C-295.11025545 155.21964506 -291.86275131 150.7678634 -288.58398438 146.33618164 C-288.12749512 145.71839844 -287.67100586 145.10061523 -287.20068359 144.46411133 C-282.0952631 137.59208957 -276.70872995 131.08203834 -270.87304688 124.81274414 C-268.93815221 122.71935981 -267.09821532 120.58535957 -265.27148438 118.39868164 C-261.6269349 114.19276791 -257.53468795 110.50844504 -253.42382812 106.76928711 C-250.29515382 103.92331346 -247.23691356 101.04185562 -244.27148438 98.02368164 C-241.24639202 94.96093253 -238.1290634 92.0747911 -234.85351562 89.28149414 C-233.22448267 87.88518018 -231.62035125 86.45961491 -230.03320312 85.01586914 C-215.14070145 71.80000672 -197.81433682 61.23669468 -180.58398438 51.33618164 C-179.7404541 50.84553223 -178.89692383 50.35488281 -178.02783203 49.84936523 C-144.2496798 30.22351052 -108.65982238 15.4980169 -70.22851562 7.87426758 C-67.74355057 7.36864877 -65.27355894 6.82051375 -62.80273438 6.25024414 C-42.04715598 1.49552787 -21.26223706 -0.15669794 0 0 Z M-38.58398438 37.33618164 C-39.59928223 37.47540039 -40.61458008 37.61461914 -41.66064453 37.75805664 C-90.43168944 44.60422769 -141.38119783 63.26724951 -181.58398438 92.33618164 C-182.65277832 93.10599365 -182.65277832 93.10599365 -183.74316406 93.89135742 C-196.39226993 103.02624982 -208.54100322 112.42320324 -220.02929688 123.00024414 C-222.20340536 124.98819043 -224.40821213 126.92151502 -226.64648438 128.83618164 C-234.20481075 135.41874047 -241.16703413 142.64327411 -247.58398438 150.33618164 C-248.03612305 150.87452637 -248.48826172 151.41287109 -248.95410156 151.9675293 C-257.39261452 162.04791267 -265.21318273 172.45164268 -272.58398438 183.33618164 C-272.98037109 183.92044922 -273.37675781 184.5047168 -273.78515625 185.10668945 C-302.89773876 228.37192256 -321.74528999 278.6487364 -327.27539062 330.51049805 C-327.55890199 333.10651118 -327.87819255 335.69507013 -328.20898438 338.28540039 C-331.14024149 362.64947878 -330.51686153 388.00726736 -327.58398438 412.33618164 C-327.4927832 413.16021484 -327.40158203 413.98424805 -327.30761719 414.83325195 C-323.38257985 449.80051439 -313.74476342 486.91770734 -297.58398438 518.33618164 C-297.05434082 519.3711377 -296.52469727 520.40609375 -295.97900391 521.47241211 C-285.45293698 541.88114334 -274.33060284 561.63811996 -259.58398438 579.33618164 C-259.13168457 579.88467773 -258.67938477 580.43317383 -258.21337891 580.99829102 C-252.02487575 588.493915 -245.5770871 595.72231597 -238.96337891 602.84350586 C-237.56629763 604.35532089 -236.180989 605.87712768 -234.79882812 607.40258789 C-217.66779485 626.29211466 -199.20523749 641.87946429 -177.58398438 655.33618164 C-176.85131348 655.79524902 -176.11864258 656.25431641 -175.36376953 656.72729492 C-96.85872993 705.82518935 -6.22171 723.42168679 84.66601562 703.46118164 C87.59116989 702.7853253 90.50432939 702.06768902 93.41601562 701.33618164 C94.23924316 701.13299316 95.0624707 700.92980469 95.91064453 700.72045898 C157.99596771 685.21938725 218.69876197 650.61187089 260.49023438 601.53930664 C262.48057718 599.26232218 264.54248427 597.06131923 266.61694336 594.86108398 C286.03551974 574.17854038 300.52316634 550.52144769 313.41601562 525.33618164 C313.85284668 524.4937793 314.28967773 523.65137695 314.73974609 522.78344727 C326.02579971 500.86148998 333.23270696 477.1261264 339.41601562 453.33618164 C339.6192041 452.58433594 339.82239258 451.83249023 340.03173828 451.05786133 C346.70301692 426.36191618 348.06194906 401.63640361 347.86553955 376.23199463 C347.84945528 373.27795901 347.85966806 370.32423601 347.86924076 367.37019062 C347.92987024 344.12753313 345.86700319 321.93758063 340.60351562 299.27368164 C340.2486429 297.71611405 339.89399144 296.15849604 339.53955078 294.60083008 C336.82533887 282.75947889 334.00347715 270.94795805 330.41601562 259.33618164 C330.21395508 258.68053223 330.01189453 258.02488281 329.80371094 257.34936523 C323.1668864 236.54568114 312.17596521 215.68061912 300.41601562 197.33618164 C299.95517578 196.61462891 299.49433594 195.89307617 299.01953125 195.1496582 C278.68431658 163.53369361 254.10217652 131.68983267 224.41601562 108.33618164 C223.48789062 107.57950195 222.55976562 106.82282227 221.60351562 106.04321289 C185.11846105 76.92167844 140.39123996 56.85923562 95.41601562 45.33618164 C94.45848389 45.08271973 93.50095215 44.82925781 92.5144043 44.56811523 C49.98661698 33.52403657 4.84827167 31.18178652 -38.58398438 37.33618164 Z " fill="#070707" transform="translate(502.583984375,139.663818359375)"/>
<path d="M0 0 C0.88968473 0.00037972 1.77936947 0.00075944 2.69601434 0.00115067 C3.7186403 -0.00084038 4.74126625 -0.00283143 5.79488087 -0.00488281 C6.93201588 -0.00196997 8.06915089 0.00094287 9.24074453 0.00394398 C11.03674743 0.00266234 11.03674743 0.00266234 12.86903322 0.00135481 C16.20745662 -0.00001339 19.54582211 0.00313415 22.88423854 0.00813287 C26.47866492 0.01243402 30.07308937 0.01099119 33.6675176 0.0102306 C39.90008688 0.00970515 46.13264573 0.01285413 52.36521238 0.01846844 C61.37656032 0.02658061 70.38790318 0.02919837 79.39925437 0.03045643 C94.0180464 0.0326474 108.63683285 0.03930869 123.25562185 0.04875904 C137.46004865 0.05793201 151.66447394 0.06501341 165.8689031 0.06926686 C166.74383008 0.06952958 167.61875706 0.0697923 168.52019698 0.07006299 C172.90925922 0.07136798 177.29832146 0.0726317 181.68738371 0.07387489 C218.12395205 0.08424889 254.56051406 0.10186842 290.99707693 0.1241985 C287.72759836 4.1705491 285.49100548 6.82504363 280.68457693 9.0616985 C279.6404363 9.55540943 278.59629568 10.04912037 277.52051443 10.55779225 C274.3238305 11.97893444 271.11388007 13.36093619 267.89575857 14.73235279 C254.72899854 20.14338497 254.72899854 20.14338497 244.99707693 30.1241985 C244.00707693 32.7641985 243.01707693 35.4041985 241.99707693 38.1241985 C173.37299784 45.34778577 104.00029747 40.1241985 34.99707693 40.1241985 C34.99707693 174.7641985 34.99707693 309.4041985 34.99707693 448.1241985 C146.86707693 448.1241985 258.73707693 448.1241985 373.99707693 448.1241985 C373.87826167 340.53921514 373.87826167 340.53921514 373.72681326 232.95427662 C373.71326345 212.17009693 373.71326345 212.17009693 373.71074575 202.44731861 C373.70794515 195.64097199 373.69692797 188.83469902 373.68035024 182.0283733 C373.66126265 174.17997566 373.65256713 166.33164879 373.65674208 158.48322776 C373.65855043 154.46787209 373.65567044 150.45267464 373.63943154 146.43734795 C373.62483149 142.80518928 373.62410735 139.17330073 373.63437361 135.54112965 C373.63624565 133.60831041 373.62331775 131.67549426 373.60983461 129.74272114 C373.65304965 121.35788332 374.39601381 114.14781345 380.29395193 107.62810475 C389.79304822 99.24014127 399.38804723 95.1241985 411.99707693 95.1241985 C411.99707693 224.4841985 411.99707693 353.8441985 411.99707693 487.1241985 C275.37707693 487.1241985 138.75707693 487.1241985 -2.00292307 487.1241985 C-3.03200451 483.00787273 -3.14165829 479.30673394 -3.12876421 475.10722786 C-3.13021765 474.28911597 -3.13167109 473.47100407 -3.13316858 472.6281009 C-3.13683657 469.86915735 -3.13333845 467.11026878 -3.12990671 464.35132557 C-3.13105821 462.36043198 -3.13264593 460.36953859 -3.13463396 458.37864566 C-3.13882324 452.89404936 -3.13673839 447.40947038 -3.13364774 441.92487401 C-3.13139229 436.01552999 -3.13487395 430.10618901 -3.13762766 424.19684559 C-3.14182485 413.28572178 -3.14145059 402.37460394 -3.13871619 391.46347981 C-3.13620309 381.3862862 -3.13554279 371.30909462 -3.13673884 361.23190075 C-3.13681522 360.56410169 -3.13689161 359.89630262 -3.13697031 359.20826722 C-3.13728163 356.49765513 -3.13760003 353.78704303 -3.13793007 351.07643093 C-3.1409904 325.63935393 -3.13821331 300.20228046 -3.13283317 274.765204 C-3.12808579 252.14764363 -3.12851341 229.53008889 -3.13329417 206.91252857 C-3.13864388 181.51818152 -3.14077502 156.12383758 -3.1376819 130.72949004 C-3.13736117 128.02467634 -3.13704833 125.31986264 -3.13673884 122.61504894 C-3.13665976 121.94902384 -3.13658068 121.28299873 -3.13649921 120.59679104 C-3.13535986 110.52189395 -3.13669545 100.4469991 -3.13921839 90.37210232 C-3.14201541 78.9233349 -3.14128015 67.47457434 -3.13593765 56.02580772 C-3.13329953 50.17870781 -3.13229744 44.33161937 -3.1355868 38.48451954 C-3.13854742 33.14121425 -3.1369609 27.79793115 -3.13160925 22.45462789 C-3.13048407 20.51261621 -3.13107843 18.57060269 -3.13348503 16.62859217 C-3.13648689 14.00691597 -3.13344678 11.3853177 -3.12876421 8.76364571 C-3.13110538 7.99412161 -3.13344654 7.22459751 -3.13585865 6.4317545 C-3.11329249 0.19305097 -3.11329249 0.19305097 0 0 Z " fill="#060606" transform="translate(306.00292307138443,285.8758015036583)"/>
<path d="M0 0 C36.34125 -0.103125 72.6825 -0.20625 110.125 -0.3125 C121.60812988 -0.35802002 133.09125977 -0.40354004 144.92236328 -0.45043945 C158.92358398 -0.47302246 158.92358398 -0.47302246 165.47409058 -0.47721863 C170.05811616 -0.48188489 174.64185345 -0.50065355 179.22579956 -0.52787781 C185.07002988 -0.56212812 190.91383993 -0.57246436 196.75816131 -0.56536138 C198.90480516 -0.56684703 201.05146345 -0.57678907 203.19802117 -0.59607565 C206.0953674 -0.62090202 208.99107538 -0.6149692 211.88845825 -0.60127258 C212.73063841 -0.61583591 213.57281857 -0.63039923 214.44051933 -0.64540386 C218.59842542 -0.59247768 221.20106783 -0.25394747 224.48873711 2.40983295 C226.70270203 4.69336089 227.95289779 6.16304036 229.07421875 9.078125 C229.54287354 10.24891602 229.54287354 10.24891602 230.02099609 11.44335938 C230.34406738 12.28705078 230.66713867 13.13074219 231 14 C231.77558961 15.87051996 232.55302801 17.74027411 233.33203125 19.609375 C238.17002503 31.52639246 242.68943083 43.47528904 246.62504578 55.72160339 C247.01175461 56.92464756 247.01175461 56.92464756 247.40627575 58.15199566 C247.60220475 58.76183709 247.79813375 59.37167852 248 60 C227.44286659 60.98253719 206.93291264 61.13670277 186.35756707 61.10139394 C182.00149722 61.09502593 177.64542621 61.09454621 173.28935242 61.09336853 C165.08790699 61.09029401 156.88647533 61.08213448 148.68503588 61.07201904 C139.32787869 61.06073543 129.97072074 61.055317 120.61355841 61.05032361 C101.40902962 61.03994734 82.20451962 61.02165184 63 61 C63.33 78.82 63.66 96.64 64 115 C88.75 115.495 88.75 115.495 114 116 C114 135.14 114 154.28 114 174 C96.84 174 79.68 174 62 174 C62 223.5 62 273 62 324 C41.54 324 21.08 324 0 324 C0 217.08 0 110.16 0 0 Z " fill="#060607" transform="translate(387,378)"/>
<path d="M0 0 C34.98 0 69.96 0 106 0 C106 19.14 106 38.28 106 58 C89.5 58 73 58 56 58 C56 74.17 56 90.34 56 107 C70.19 107 84.38 107 99 107 C99 124.49 99 141.98 99 160 C88.91653251 160.63021672 79.06655334 161.13813301 69 161.0625 C65.04 161.041875 61.08 161.02125 57 161 C57 176.18 57 191.36 57 207 C38.52 207.33 20.04 207.66 1 208 C0.02949952 166.03922727 -0.12648366 124.11721758 -0.07202661 82.14836133 C-0.05841329 71.45997268 -0.05329273 60.77157944 -0.04751682 50.08318424 C-0.03828618 33.38877843 -0.01831643 16.69440406 0 0 Z " fill="#060606" transform="translate(534,494)"/>
<path d="M0 0 C0.66 0 1.32 0 2 0 C2.31227539 0.8564209 2.62455078 1.7128418 2.94628906 2.59521484 C4.12295802 5.81994972 5.30101965 9.04416907 6.47998047 12.26806641 C6.98671078 13.65458594 7.49291019 15.04129965 7.99853516 16.42822266 C9.65019081 20.95801095 11.31786949 25.48143151 13 30 C13.54466919 31.47158569 13.54466919 31.47158569 14.1003418 32.97290039 C18.04943175 43.29237034 24.48885379 52.86512424 33 60 C33.66773438 60.56976563 34.33546875 61.13953125 35.0234375 61.7265625 C47.42927677 71.33791238 64.26885194 75.24633165 79 80 C79 80.66 79 81.32 79 82 C78.20903931 82.27094482 78.20903931 82.27094482 77.40209961 82.54736328 C71.2541614 84.65961205 65.12393986 86.8192465 59 89 C58.27071289 89.25587891 57.54142578 89.51175781 56.79003906 89.77539062 C38.1923044 96.36492472 22.7300235 107.86176486 14.04296875 125.9140625 C9.55548516 135.75223786 4.86016188 146.33375265 3 157 C2.34 157 1.68 157 1 157 C0.69147095 156.01942627 0.69147095 156.01942627 0.37670898 155.01904297 C-7.58438502 129.91522174 -17.17503029 107.41413329 -41.4921875 94.0859375 C-47.06676911 91.37287028 -52.91159002 89.37531424 -58.75 87.3125 C-59.87277344 86.90966797 -60.99554687 86.50683594 -62.15234375 86.09179688 C-68.49973382 83.79393436 -68.49973382 83.79393436 -75 82 C-75 81.34 -75 80.68 -75 80 C-74.41734375 79.79955078 -73.8346875 79.59910156 -73.234375 79.39257812 C-50.96243091 71.67093713 -32.6093753 64.24175748 -18 45 C-17.21238281 43.99582031 -16.42476562 42.99164063 -15.61328125 41.95703125 C-8.53343107 32.08851343 -5.69007557 21.26225178 -2.67626953 9.60205078 C-1.83987762 6.38390459 -0.92941637 3.19234319 0 0 Z " fill="#070707" transform="translate(650,248)"/>
</svg>
